PathFileType	4	(X/Y/Z)	C:/Users/opensim2020/Desktop/walking_exp_matlab/subject06_walking18_straight_03.trc	
DataRate	CameraRate	NumFrames	NumMarkers	Units	OrigDataRate	OrigDataStartFrame	OrigNumFrames	
100.00	100.00	4	47	mm	100.00	3546	309	
Frame#	Time	LFHD			RFHD			LBHD			RBHD			C7			T10			CLAV			STRN			RBAK			LSHO			LUPA			LELB			LFRM			LWRA			LWRB			LFIN			RSHO			RUPA			RELB			RFRM			RWRA			RWRB			RFIN			LASI			RASI			LPSI			RPSI			LTHI			LKNE			LTIB			LANK			LHEE			LTOE			RTHI			RKNE			RTIB			RANK			RHEE			RTOE			*39			*40			*41			*42			*43			*44			*45			*46			
		X1	Y1	Z1	X2	Y2	Z2	X3	Y3	Z3	X4	Y4	Z4	X5	Y5	Z5	X6	Y6	Z6	X7	Y7	Z7	X8	Y8	Z8	X9	Y9	Z9	X10	Y10	Z10	X11	Y11	Z11	X12	Y12	Z12	X13	Y13	Z13	X14	Y14	Z14	X15	Y15	Z15	X16	Y16	Z16	X17	Y17	Z17	X18	Y18	Z18	X19	Y19	Z19	X20	Y20	Z20	X21	Y21	Z21	X22	Y22	Z22	X23	Y23	Z23	X24	Y24	Z24	X25	Y25	Z25	X26	Y26	Z26	X27	Y27	Z27	X28	Y28	Z28	X29	Y29	Z29	X30	Y30	Z30	X31	Y31	Z31	X32	Y32	Z32	X33	Y33	Z33	X34	Y34	Z34	X35	Y35	Z35	X36	Y36	Z36	X37	Y37	Z37	X38	Y38	Z38	X39	Y39	Z39	X40	Y40	Z40	X41	Y41	Z41	X42	Y42	Z42	X43	Y43	Z43	X44	Y44	Z44	X45	Y45	Z45	X46	Y46	Z46	X47	Y47	Z47	

232	2.310	1417.20190	713.53314	1674.28894	1548.74268	718.60699	1662.21753	1420.43860	579.97162	1619.22498	1550.05005	585.89648	1612.14014	1476.71875	581.60114	1461.87109	1485.22876	543.93787	1133.53516	1472.53284	690.18555	1383.58875	1466.88501	728.16461	1207.97449	1562.08667	511.05905	1292.55896	1313.13965	629.56458	1415.24622	1239.85767	607.68420	1214.39844	1226.84290	593.63788	1103.54089	1196.39331	612.16809	955.55658	1224.42114	678.12823	839.98792	1196.34412	613.35785	836.27460	1187.25183	653.11615	755.07648	1634.00061	653.70148	1417.02856	1725.24268	640.22412	1217.30005	1735.87317	666.94397	1098.14771	1744.82629	715.54004	988.18793	1697.24292	809.52045	876.15485	1742.17163	763.19214	859.14844	1736.55383	822.21423	799.39832	1371.43262	720.14514	976.83240	1591.37427	718.95056	974.39746	1396.61108	561.63531	1000.68036	1565.04028	567.19861	1002.31671	1295.84766	695.04565	663.42511	1318.39148	737.88867	505.20956	1319.56335	726.65424	251.47906	1352.73816	746.03442	78.33625	1402.03430	710.83124	59.40998	1347.04590	890.42352	59.89040	1630.58167	643.84814	638.83093	1605.17065	635.77966	513.41553	1591.57751	558.93958	255.83578	1534.50012	530.77203	72.89785	1489.20898	490.58203	51.08111	1529.85840	683.98059	36.77415	1479.90857	614.87659	1711.53699																					 
233	2.320	1416.93933	719.44977	1673.52698	1548.55652	724.55347	1661.57617	1420.23914	585.86115	1618.49463	1549.90198	591.97021	1611.45007	1476.65942	587.42822	1461.16541	1485.21362	549.70026	1132.81641	1472.52478	695.98938	1382.81238	1467.12122	733.85748	1207.21472	1562.09985	516.82513	1291.96118	1313.10168	635.28473	1414.47400	1240.15967	611.43243	1213.85864	1227.06091	596.71448	1103.02368	1196.51172	613.91650	954.90002	1224.07227	678.94788	838.80933	1196.31372	613.73126	835.62494	1186.76379	653.02856	754.13617	1633.95691	659.46051	1416.49707	1725.45044	646.21582	1216.85901	1736.06042	673.06708	1097.71436	1744.94849	722.94836	988.35767	1696.95740	818.09436	877.58447	1741.93091	772.11023	860.00043	1736.03137	831.65106	800.81854	1371.72363	725.99225	976.27173	1591.71350	724.46906	973.66089	1396.50354	567.45172	999.98535	1564.93652	572.82727	1001.50433	1295.56262	701.33685	663.10516	1318.29846	745.18976	505.30252	1319.14673	740.99615	251.25391	1352.24072	765.50159	78.62569	1400.66968	730.90863	58.45434	1348.58167	910.68835	63.40617	1630.29846	648.49536	638.13226	1604.79468	639.52655	512.70502	1591.34814	561.03314	255.64920	1534.19861	531.23254	73.01929	1488.95667	490.78915	51.29947	1529.94580	684.35303	36.81338	1479.61621	620.83630	1710.82886																					 
234	2.330	1416.57446	725.34814	1672.70532	1548.18958	730.50507	1660.82288	1419.96570	591.74896	1617.66174	1549.66870	597.91937	1610.75391	1476.39282	593.36377	1460.36646	1485.23389	555.41412	1131.94604	1472.43835	701.83698	1382.03650	1467.21851	739.55853	1206.41162	1562.08276	522.56232	1291.38867	1313.00793	640.99072	1413.56311	1240.44556	615.65887	1213.08069	1227.08484	599.90070	1102.51563	1196.36865	615.43738	954.27277	1223.75964	679.75854	837.57074	1196.24158	614.64038	834.93341	1186.85193	652.68109	752.97064	1633.84106	665.31384	1415.86975	1725.57214	652.16626	1216.29199	1736.50830	679.63971	1097.43298	1744.86108	730.15094	988.44873	1696.62427	826.57501	878.87067	1741.61414	780.78998	860.65247	1735.51038	841.05286	802.25513	1371.96863	731.81610	975.65533	1591.91199	730.05225	972.88831	1396.32422	573.31976	999.24829	1564.82739	578.40985	1000.66193	1295.12805	707.97003	662.69812	1318.19800	752.77020	505.45572	1318.72681	754.93567	251.22659	1351.82422	784.25763	79.17396	1399.76013	749.99121	57.72371	1350.17871	930.02307	67.39767	1630.00854	653.13910	637.45959	1604.75708	643.25690	512.09180	1591.11438	562.99060	255.47734	1533.92126	531.63531	73.13870	1488.67493	490.89929	51.52520	1529.90320	684.53577	36.67168	1479.25403	626.82843	1710.06421																					 
235	2.340	1416.20679	731.33679	1671.82104	1547.86377	736.48779	1660.08704	1419.61011	597.70490	1616.81042	1549.27356	603.91101	1609.99365	1476.22485	599.21545	1459.64697	1485.20056	561.16077	1131.20544	1472.28967	707.74084	1381.16125	1467.33606	745.32214	1205.54102	1562.00647	528.33356	1290.67249	1312.81897	646.75281	1412.57642	1240.26221	619.87244	1212.38977	1227.11768	603.28033	1101.90820	1196.32861	617.50275	953.52313	1223.47571	680.78778	836.27167	1196.35828	615.27667	834.22406	1186.59839	652.96320	751.92896	1633.71326	671.19843	1415.21362	1725.59338	658.12488	1215.74756	1736.71729	685.98645	1096.98340	1745.00696	737.55359	988.58380	1696.21960	834.85785	880.02625	1741.25500	789.36865	861.24469	1734.86328	850.06641	803.23773	1372.07593	737.66125	975.04968	1592.03455	735.72247	972.10406	1396.17615	579.08746	998.51526	1564.77942	584.08563	999.77716	1294.62939	714.82312	662.28619	1318.24609	760.32446	505.62769	1318.27625	768.50482	251.42079	1351.41284	802.37402	79.93449	1398.97546	768.17487	57.66465	1351.39099	948.62073	71.38734	1629.64465	657.83691	636.78894	1604.42493	647.22717	511.54962	1590.80310	564.93683	255.24182	1533.60498	532.04834	73.30221	1488.40613	491.15878	51.80141	1529.91370	684.73816	36.51373	1478.87573	632.75806	1709.26538																					 
